<svg xmlns="http://www.w3.org/2000/svg" version="1.1" xmlns:xlink="http://www.w3.org/1999/xlink" xmlns:svgjs="http://svgjs.dev/svgjs" width="1000" height="1000" viewBox="0 0 1000 1000"><rect width="1000" height="1000" fill="#ffffff"></rect><g transform="matrix(0.7,0,0,0.7,150.2387880455061,274.7825101214575)"><svg viewBox="0 0 383 247" data-background-color="#003366" preserveAspectRatio="xMidYMid meet" height="644" width="1000" xmlns="http://www.w3.org/2000/svg" xmlns:xlink="http://www.w3.org/1999/xlink"><defs></defs><g id="tight-bounds" transform="matrix(1,0,0,1,-0.13065117346977217,-0.09999999999999432)"><svg viewBox="0 0 383.26128339857195 247.2" height="247.2" width="383.26128339857195"><g><svg viewBox="0 0 395.52 255.10675937052997" height="247.2" width="383.26128339857195"><g transform="matrix(1,0,0,1,0,189.0539230984897)"><svg viewBox="0 0 395.52 66.05283627204028" height="66.05283627204028" width="395.52"><g><svg viewBox="0 0 395.52 66.05283627204028" height="66.05283627204028" width="395.52"><g><svg viewBox="0 0 395.52 66.05283627204028" height="66.05283627204028" width="395.52"><g transform="matrix(1,0,0,1,0,0)"><svg width="395.52" viewBox="1.5499999523162842 -32.650001525878906 198.489990234375 33.150001525878906" height="66.05283627204028" data-palette-color="#ffffff"><path d="M14.25-32.6Q18.35-32.6 22.4-30.95L22.4-30.95 21.3-25.1 20.3-24.7Q18.6-25.9 16.78-26.6 14.95-27.3 13.45-27.3L13.45-27.3Q11.45-27.3 10.25-26.23 9.05-25.15 9.05-23.75L9.05-23.75Q9.05-22.3 10.38-21.3 11.7-20.3 14.55-18.95L14.55-18.95Q17.3-17.7 19.03-16.63 20.75-15.55 21.98-13.8 23.2-12.05 23.2-9.5L23.2-9.5Q23.2-6.75 21.7-4.48 20.2-2.2 17.45-0.88 14.7 0.45 11.1 0.45L11.1 0.45Q6.35 0.45 1.55-1.6L1.55-1.6 2.5-7.9 3.25-8.3Q5.25-6.55 7.63-5.63 10-4.7 11.85-4.7L11.85-4.7Q14.05-4.7 15.28-5.78 16.5-6.85 16.5-8.35L16.5-8.35Q16.5-9.95 15.18-10.95 13.85-11.95 10.9-13.35L10.9-13.35Q8.2-14.55 6.5-15.6 4.8-16.65 3.6-18.4 2.4-20.15 2.4-22.65L2.4-22.65Q2.4-25.45 3.9-27.73 5.4-30 8.1-31.3 10.8-32.6 14.25-32.6L14.25-32.6ZM41.1-5.3L49.05-5.6 49.45-5.05 49 0 28.8 0 29.15-9.6 28.8-32.2 49.2-32.2 49.6-31.65 49.1-26.6 41.4-26.85 35.6-26.8 35.45-19.05 41-18.95 46.25-19.1 46.65-18.6 46.2-13.55 40.5-13.7 35.35-13.65 35.3-10.2 35.45-5.35 41.1-5.3ZM71.15-12.8Q75.05-6.6 78.9-1.6L78.9-1.6 78.8-0.85Q75.55 0.3 72.15 0.5L72.15 0.5 71.45-0.05Q67.84-6.25 65.59-10.85L65.59-10.85 60.75-10.85 60.75-10.2 61.05 0 54.25 0 54.6-9.6 54.25-32.2 66.59-32.25Q71.65-32.25 74.4-29.78 77.15-27.3 77.15-22.7L77.15-22.7Q77.15-19.6 75.57-17.03 74-14.45 71.15-12.8L71.15-12.8ZM61.05-27.05L60.85-16.1 65.8-15.9Q70.05-17.35 70.05-22.05L70.05-22.05Q70.05-24.6 68.67-25.88 67.3-27.15 64.45-27.25L64.45-27.25 61.05-27.05ZM108.04-32.2L97.19 0 89.09 0 79.24-32.2 86.14-32.2 86.94-27.95 93.04-6.3 93.49-6.3 100.49-27.6 101.34-32.2 108.04-32.2ZM125.84-32.2L135.69 0 128.79 0 127.99-4.2 127.14-7.2 120.84-7.35 115.29-7.2 114.44-4.55 113.59 0 106.89 0 117.79-32.2 125.84-32.2ZM121.34-12.35L125.69-12.45 121.89-25.85 121.44-25.85 117.04-12.45 121.34-12.35ZM153.34-32.4Q160.34-32.4 164.09-28.5 167.84-24.6 167.84-17.3L167.84-17.3Q167.84-8.75 163.64-4.2 159.44 0.35 151.64 0.35L151.64 0.35Q149.29 0.35 146.01 0.25 142.74 0.15 140.39 0L140.39 0 140.74-9.6 140.39-32.2 153.34-32.4ZM152.84-4.9Q160.79-4.9 160.79-15.75L160.79-15.75Q160.79-21.65 158.86-24.33 156.94-27 152.84-27L152.84-27Q150.19-27 147.19-26.75L147.19-26.75 146.89-10.2 147.04-5.25Q150.54-4.9 152.84-4.9L152.84-4.9ZM185.89-32.65Q192.69-32.65 196.36-28.53 200.04-24.4 200.04-16.8L200.04-16.8Q200.04-8.5 196.04-4 192.04 0.5 184.74 0.5L184.74 0.5Q177.99 0.5 174.31-3.73 170.64-7.95 170.64-15.7L170.64-15.7Q170.64-23.85 174.61-28.25 178.59-32.65 185.89-32.65L185.89-32.65ZM185.29-27.2Q181.29-27.2 179.49-24.7 177.69-22.2 177.69-16.55L177.69-16.55Q177.69-10.1 179.46-7.35 181.24-4.6 185.34-4.6L185.34-4.6Q189.34-4.6 191.14-7.13 192.94-9.65 192.94-15.4L192.94-15.4Q192.94-21.75 191.16-24.48 189.39-27.2 185.29-27.2L185.29-27.2Z" opacity="1" transform="matrix(1,0,0,1,0,0)" fill="#000000" class="undefined-text-0" data-fill-palette-color="primary" id="text-0"></path></svg></g></svg></g></svg></g></svg></g><g transform="matrix(1,0,0,1,118.82652782651333,0)"><svg viewBox="0 0 157.86694434697333 157.86694434697333" height="157.86694434697333" width="157.86694434697333"><g><svg></svg></g><g id="icon-0"><svg viewBox="0 0 157.86694434697333 157.86694434697333" height="157.86694434697333" width="157.86694434697333"><g><path d="M0 78.933c0-43.594 35.34-78.933 78.933-78.933 43.594 0 78.933 35.34 78.934 78.933 0 43.594-35.34 78.933-78.934 78.934-43.594 0-78.933-35.34-78.933-78.934zM78.933 151.91c40.304 0 72.977-32.673 72.977-72.977 0-40.304-32.673-72.977-72.977-72.976-40.304 0-72.977 32.673-72.976 72.976 0 40.304 32.673 72.977 72.976 72.977z" data-fill-palette-color="tertiary" fill="#ffffff" stroke="transparent"></path></g><g transform="matrix(1,0,0,1,34.141147397934084,35.97306446109144)"><svg viewBox="0 0 89.58464955110516 85.92081542479045" height="85.92081542479045" width="89.58464955110516"><g><svg xmlns="http://www.w3.org/2000/svg" xmlns:xlink="http://www.w3.org/1999/xlink" version="1.1" x="0" y="0" viewBox="13.776000022888184 15.257003784179688 72.44900512695312 69.4859848022461" enable-background="new 0 0 100 100" xml:space="preserve" height="85.92081542479045" width="89.58464955110516" class="icon-x-0" data-fill-palette-color="accent" id="x-0"><path d="M45.634 51.631l4.365 8.729 4.366-8.73c8.072-1.97 14.09-9.243 14.09-17.914 0-10.179-8.279-18.459-18.457-18.459S31.54 23.537 31.54 33.716C31.54 42.388 37.559 49.662 45.634 51.631zM49.998 22.568c6.146 0 11.146 5.001 11.146 11.148 0 6.146-5 11.146-11.146 11.146s-11.146-5-11.146-11.146C38.852 27.569 43.852 22.568 49.998 22.568z" fill="#000000" data-fill-palette-color="accent"></path><circle cx="49.998" cy="33.716" r="5.9" fill="#000000" data-fill-palette-color="accent"></circle><path d="M82.568 65.589h-8.883H26.313h-8.882c-2.019 0-3.655 1.638-3.655 3.656s1.637 3.656 3.655 3.656h7.055l7.786 10.379c0.69 0.921 1.774 1.463 2.925 1.463h29.606c1.152 0 2.234-0.542 2.924-1.463l7.787-10.379h7.055c2.018 0 3.656-1.638 3.656-3.656S84.586 65.589 82.568 65.589zM62.975 77.433H37.023l-3.398-4.531h32.748L62.975 77.433z" fill="#000000" data-fill-palette-color="accent"></path></svg></g></svg></g></svg></g></svg></g><g></g></svg></g></svg><rect width="383.26128339857195" height="247.2" fill="none" stroke="none" visibility="hidden"></rect></g></svg></g></svg>